<?xml version="1.0" encoding="UTF-8"?>
<!DOCTYPE svg PUBLIC "-//W3C//DTD SVG 1.1//EN" "http://www.w3.org/Graphics/SVG/1.1/DTD/svg11.dtd">
<!-- Creator: CorelDRAW -->
<svg xmlns="http://www.w3.org/2000/svg" xml:space="preserve" width="200mm" height="100mm" version="1.1" style="shape-rendering:geometricPrecision; text-rendering:geometricPrecision; image-rendering:optimizeQuality; fill-rule:evenodd; clip-rule:evenodd"
viewBox="0 0 20000 10000"
 xmlns:xlink="http://www.w3.org/1999/xlink"
 xmlns:xodm="http://www.corel.com/coreldraw/odm/2003">
 <defs>
  <style type="text/css">
   <![CDATA[
    .fil3 {fill:#FEFEFE}
    .fil0 {fill:#7A75B5}
    .fil1 {fill:#FEFEFE;fill-rule:nonzero}
    .fil2 {fill:#7A75B5;fill-rule:nonzero}
   ]]>
  </style>
 </defs>
 <g id="Camada_x0020_1">
  <metadata id="CorelCorpID_0Corel-Layer"/>
  <rect class="fil0" x="1261.21" y="1552.63" width="6727.61" height="6348.3" rx="1297.6" ry="1297.6"/>
  <path class="fil1" d="M3826.24 5930.45c-270.3,246.94 -585.75,373.19 -946.4,379.4 -300.47,5.17 -540.08,-67.48 -718.88,-218.58 -178.83,-151.72 -269.89,-362.21 -273.83,-632.75 -5.44,-373.07 201.78,-653.54 622.36,-840.13 -215.65,-176.87 -324.52,-373.87 -327.66,-589.65 -2.93,-200.69 64.82,-361.09 204.32,-482.4 138.95,-120.69 328.56,-183.12 569.38,-187.28 220.54,-3.78 400.85,51.01 541.47,163.76 140.05,113.35 211.08,260.64 213.73,442.48 4.24,290.01 -148.9,509.12 -460.01,656.72 243.68,114.09 457.96,314.92 643.41,603.08 183.81,-259.92 273.04,-573.57 267.68,-940.98 -1.48,-101.94 -14.97,-193.55 -39.88,-274.29l471.8 -8.15c24.78,71.94 37.64,160.44 39.17,264.9 7.11,487.57 -155.5,932.13 -487.81,1332.42 134.8,151.22 261.52,225.81 380.21,223.78 118.68,-2.05 227.13,-30.35 325.93,-84.89l6.65 454.84c-123.66,57.52 -257.58,87.48 -402.31,89.98 -221.69,3.81 -431.29,-113.4 -629.33,-352.26zm-914.56 -1527.28c211.22,-88.56 315.9,-217.51 313.41,-387.37 -1.12,-77.37 -28.09,-139.2 -80.34,-186.14 -52.19,-46.91 -113.35,-70.42 -183.37,-69.21 -83.37,1.43 -152.44,29.05 -207.25,82.23 -54.82,53.18 -81.68,117.83 -80.56,193.96 2.17,148.46 81.52,271.08 238.11,366.53zm669.95 1152.02c-199.46,-335.11 -449.49,-566.8 -750.15,-695.01 -262.61,136.66 -391.88,325.15 -388.41,564.86 1.92,131.48 45.16,237.1 129.11,316.2 84.55,79.08 193.96,117.48 328.26,115.16 251.23,-4.34 477.93,-105.14 681.19,-301.21zm3757.38 -2223.75l-870.72 2870.68 -632.72 10.91 -942.41 -2839.49 603.81 -10.38 597.91 2008.44c29.81,98.93 48.55,193.01 56.21,280.94l10.42 -0.18c7.93,-90.75 25.63,-187.96 53.66,-290.39l538.58 -2020.45 585.26 -10.08z"/>
  <path class="fil2" d="M8816.3 3238.99c0,-129.34 45.46,-233.66 137.31,-314.8 90.96,-81.14 207.78,-121.29 351.36,-121.29 146.24,0 263.95,41.03 354.91,123.94 90.96,82.96 135.58,186.39 135.58,312.15 0,126.6 -45.51,232.73 -138.23,317.45 -91.85,84.72 -209.56,126.64 -352.26,126.64 -141.76,0 -257.71,-42.8 -350.44,-128.41 -91.88,-84.72 -138.23,-190.85 -138.23,-315.68zm62.4 3822.06l0 -2889.3 840.96 0 0 2889.3 -840.96 0zm4341.99 0l-839.15 0 0 -1612.29c0,-466.42 -167.64,-700.03 -503.84,-700.03 -160.51,0 -293.39,62.39 -399.52,187.27 -106.08,123.94 -159.59,283.58 -159.59,476.2l0 1648.85 -843.61 0 0 -2889.3 843.61 0 0 459.27 10.7 0c210.44,-353.14 520.78,-529.71 930.07,-529.71 640.3,0 961.33,396.83 961.33,1191.36l0 1768.38zm2554.91 -3625.9c-115.06,-45.46 -223.84,-68.68 -326.38,-68.68 -288.93,0 -433.4,160.52 -433.4,480.67l0 324.61 658.12 0 0 629.6 -658.12 0 0 2259.7 -843.61 0 0 -2259.7 -483.32 0 0 -629.6 483.32 0 0 -370.95c0,-329.08 107.01,-592.15 321.03,-789.23 214.02,-197.09 494.9,-295.17 843.62,-295.17 177.45,0 323.68,17.82 438.74,54.39l0 664.36zm162.29 2194.61c0,-476.2 142.65,-849.81 427.11,-1120.92 285.4,-272 667.94,-407.53 1148.6,-407.53 464.62,0 833.8,133.76 1107.57,400.41 273.76,267.52 410.22,626.9 410.22,1078.11 0,473.55 -140,850.74 -420.92,1130.74 -280,280.92 -659.89,420.92 -1138.79,420.92 -469.96,0 -843.57,-134.65 -1119.15,-403.94 -276.46,-268.46 -414.64,-634.95 -414.64,-1097.79zm854.27 -10.7c0,576.09 235.43,865.01 705.39,865.01 451.22,0 676.87,-296.04 676.87,-889.07 0,-563.58 -227.42,-846.27 -682.22,-846.27 -221.14,0 -392.36,75.79 -515.42,227.37 -123.06,151.63 -184.62,365.65 -184.62,642.96z"/>
  <path class="fil3" d="M8818.91 2802.29c-126.95,112.19 -189.81,256.39 -189.81,435.2 0,172.52 64.06,319.25 191.08,436.36 128.21,118.34 288.46,177.51 484.42,177.51 197.29,0 360.04,-57.91 486.99,-175.05 128.18,-117.11 191.07,-263.84 191.07,-438.82 0,-173.89 -61.66,-316.86 -187.41,-431.54 -125.72,-114.62 -288.47,-171.36 -490.65,-171.36 -198.48,0 -359.94,55.54 -485.69,167.7z"/>
 </g>
</svg>
